<?xml version="1.0" standalone="yes"?>
<svg xmlns="http://www.w3.org/2000/svg" width="158" height="214">
<path style="fill:#010101; stroke:none;" d="M0 0L0 214L158 214L158 0L0 0z"/>
<path style="fill:#016565; stroke:none;" d="M69.6667 5.33333L70.3333 5.66667L69.6667 5.33333z"/>
<path style="fill:#01a9a9; stroke:none;" d="M71 5L72 6L71 5z"/>
<path style="fill:#01d2d2; stroke:none;" d="M8 69L9 69C21.3536 -2.74603 137.323 -2.33525 150 69C152.423 63.1705 149.16 55.4981 146.846 50C140.514 34.9508 130.631 22.5532 116 14.7816C74.0153 -7.51997 8.4464 15.0731 8 69z"/>
<path style="fill:#016565; stroke:none;" d="M85 5L85 6L90 6L85 5M63.6667 6.33333L64.3333 6.66667L63.6667 6.33333z"/>
<path style="fill:#01a9a9; stroke:none;" d="M65 6L66 7L65 6M93 6L94 7L93 6z"/>
<path style="fill:#016565; stroke:none;" d="M94.6667 6.33333L95.3333 6.66667L94.6667 6.33333M59.6667 7.33333L60.3333 7.66667L59.6667 7.33333M98 7L99 8L98 7M56 8L57 9L56 8M101 8L102 9L101 8M53 9L54 10L53 9M104 9L105 10L104 9z"/>
<path style="fill:#01a9a9; stroke:none;" d="M51 10L52 11L51 10z"/>
<path style="fill:#019898; stroke:none;" d="M106 10L107 11L106 10z"/>
<path style="fill:#016565; stroke:none;" d="M107 10L108 11L107 10z"/>
<path style="fill:#01a9a9; stroke:none;" d="M49 11L50 12L49 11z"/>
<path style="fill:#016565; stroke:none;" d="M109 11L110 12L109 11z"/>
<path style="fill:#01a9a9; stroke:none;" d="M47 12L48 13L47 12M111 12L112 13L111 12M45 13L46 14L45 13M113 13L114 14L113 13M43 14L44 15L43 14M72 14L73 15L72 14z"/>
<path style="fill:#016565; stroke:none;" d="M73 14L73 15L87 15L73 14z"/>
<path style="fill:#019898; stroke:none;" d="M115 14L116 15L115 14z"/>
<path style="fill:#01a9a9; stroke:none;" d="M41 15L42 16L41 15z"/>
<path style="fill:#016565; stroke:none;" d="M66 15L66 16L69 16L66 15M90.6667 15.3333L91.3333 15.6667L90.6667 15.3333M117 15L118 16L117 15M39 16L40 17L39 16M61.6667 16.3333L62.3333 16.6667L61.6667 16.3333M95.6667 16.3333L96.3333 16.6667L95.6667 16.3333z"/>
<path style="fill:#01a9a9; stroke:none;" d="M97 16L98 17L97 16z"/>
<path style="fill:#019898; stroke:none;" d="M38 17L39 18L38 17z"/>
<path style="fill:#016565; stroke:none;" d="M58 17L59 18L58 17M100.667 17.3333L101.333 17.6667L100.667 17.3333z"/>
<path style="fill:#019898; stroke:none;" d="M120 17L121 18L120 17z"/>
<path style="fill:#01a9a9; stroke:none;" d="M55 18L56 19L55 18z"/>
<path style="fill:#016565; stroke:none;" d="M103 18L104 19L103 18z"/>
<path style="fill:#019898; stroke:none;" d="M104 18L105 19L104 18z"/>
<path style="fill:#016565; stroke:none;" d="M52.6667 19.3333L53.3333 19.6667L52.6667 19.3333M106 19L107 20L106 19M123 19L124 20L123 19z"/>
<path style="fill:#01a9a9; stroke:none;" d="M34 20L35 21L34 20z"/>
<path style="fill:#016565; stroke:none;" d="M49 20L50 21L49 20M108 20L109 21L108 20z"/>
<path style="fill:#01a9a9; stroke:none;" d="M124 20L125 21L124 20M33 21L34 22L33 21z"/>
<path style="fill:#016565; stroke:none;" d="M47 21L48 22L47 21M110 21L111 22L110 21z"/>
<path style="fill:#019898; stroke:none;" d="M111 21L112 22L111 21z"/>
<path style="fill:#016565; stroke:none;" d="M45 22L46 23L45 22z"/>
<path style="fill:#01a9a9; stroke:none;" d="M113 22L114 23L113 22z"/>
<path style="fill:#016565; stroke:none;" d="M30 23L31 24L30 23z"/>
<path style="fill:#01a9a9; stroke:none;" d="M43 23L44 24L43 23M115 23L116 24L115 23M128 23L129 24L128 23M29 24L30 25L29 24z"/>
<path style="fill:#016565; stroke:none;" d="M116 24L117 25L116 24z"/>
<path style="fill:#01a9a9; stroke:none;" d="M129 24L130 25L129 24M28 25L29 26L28 25z"/>
<path style="fill:#016565; stroke:none;" d="M40 25L41 26L40 25M118 25L119 26L118 25z"/>
<path style="fill:#01a9a9; stroke:none;" d="M130 25L131 26L130 25M38 26L39 27L38 26z"/>
<path style="fill:#019898; stroke:none;" d="M120 26L121 27L120 26z"/>
<path style="fill:#01a9a9; stroke:none;" d="M131 26L132 27L131 26z"/>
<path style="fill:#016565; stroke:none;" d="M37 27L38 28L37 27M121 27L122 28L121 27z"/>
<path style="fill:#01a9a9; stroke:none;" d="M35 28L36 29L35 28M24 29L25 30L24 29M34 29L35 30L34 29M124 29L125 30L124 29M23 30L24 31L23 30M33 30L34 31L33 30M125 30L126 31L125 30M135 30L136 31L135 30z"/>
<path style="fill:#016565; stroke:none;" d="M22 31L23 32L22 31z"/>
<path style="fill:#01a9a9; stroke:none;" d="M126 31L127 32L126 31z"/>
<path style="fill:#016565; stroke:none;" d="M136 31L137 32L136 31z"/>
<path style="fill:#01a9a9; stroke:none;" d="M20 34L21 35L20 34M138 34L139 35L138 34M27 35L28 36L27 35z"/>
<path style="fill:#016565; stroke:none;" d="M139 35L140 36L139 35z"/>
<path style="fill:#01a9a9; stroke:none;" d="M26 36L27 37L26 36M18 37L19 38L18 37M25 37L26 38L25 37M133 37L134 38L133 37M140 37L141 38L140 37z"/>
<path style="fill:#016565; stroke:none;" d="M17 38L18 39L17 38z"/>
<path style="fill:#01a9a9; stroke:none;" d="M24 38L25 39L24 38M134 38L135 39L134 38M135 39L136 40L135 39M16 40L17 41L16 40z"/>
<path style="fill:#016565; stroke:none;" d="M142 40L143 41L142 40z"/>
<path style="fill:#01a9a9; stroke:none;" d="M21 42L22 43L21 42M137 42L138 43L137 42z"/>
<path style="fill:#016565; stroke:none;" d="M143 42L144 43L143 42M14 43L15 44L14 43z"/>
<path style="fill:#01a9a9; stroke:none;" d="M20 43L21 44L20 43M138 43L139 44L138 43z"/>
<path style="fill:#016565; stroke:none;" d="M144 44L145 45L144 44M13 45L14 46L13 45M19 45L20 46L19 45z"/>
<path style="fill:#01a9a9; stroke:none;" d="M13 46L14 47L13 46M18 46L19 47L18 46M140 46L141 47L140 46z"/>
<path style="fill:#016565; stroke:none;" d="M145 46L146 47L145 46M12 48L13 49L12 48z"/>
<path style="fill:#01a9a9; stroke:none;" d="M17 48L18 49L17 48z"/>
<path style="fill:#016565; stroke:none;" d="M141 48L142 49L141 48M146 48L147 49L146 48z"/>
<path style="fill:#01a9a9; stroke:none;" d="M142 49L143 50L142 49M146 49L147 50L146 49z"/>
<path style="fill:#016565; stroke:none;" d="M11 50L12 51L11 50M16 50L17 51L16 50z"/>
<path style="fill:#01a9a9; stroke:none;" d="M15 51L16 52L15 51M143 51L144 52L143 51M147 51L148 52L147 51z"/>
<path style="fill:#016565; stroke:none;" d="M10.3333 52.6667L10.6667 53.3333L10.3333 52.6667z"/>
<path style="fill:#01a9a9; stroke:none;" d="M14 53L15 54L14 53z"/>
<path style="fill:#016565; stroke:none;" d="M148 53L149 54L148 53z"/>
<path style="fill:#01a9a9; stroke:none;" d="M10 54L11 55L10 54z"/>
<path style="fill:#016565; stroke:none;" d="M144 54L145 55L144 54z"/>
<path style="fill:#01a9a9; stroke:none;" d="M13 55L14 56L13 55z"/>
<path style="fill:#016565; stroke:none;" d="M9 56L10 57L9 56M13 56L14 57L13 56M145 56L146 57L145 56z"/>
<path style="fill:#01a9a9; stroke:none;" d="M147 56L148 57L147 56z"/>
<path style="fill:#016565; stroke:none;" d="M149 56L150 57L149 56z"/>
<path style="fill:#019898; stroke:none;" d="M149 57L150 58L149 57z"/>
<path style="fill:#016565; stroke:none;" d="M12 58L13 59L12 58z"/>
<path style="fill:#01a9a9; stroke:none;" d="M146 58L147 59L146 58z"/>
<path style="fill:#016565; stroke:none;" d="M8.33333 59.6667L8.66667 60.3333L8.33333 59.6667M146 59L147 60L146 59z"/>
<path style="fill:#01a9a9; stroke:none;" d="M11 60L12 61L11 60z"/>
<path style="fill:#016565; stroke:none;" d="M150 60L151 61L150 60z"/>
<path style="fill:#01a9a9; stroke:none;" d="M8 61L9 62L8 61z"/>
<path style="fill:#016565; stroke:none;" d="M11 61L12 62L11 61M147 61L148 62L147 61z"/>
<path style="fill:#019898; stroke:none;" d="M150 61L151 62L150 61z"/>
<path style="fill:#016565; stroke:none;" d="M10 63L11 64L10 63z"/>
<path style="fill:#01a9a9; stroke:none;" d="M148 63L149 64L148 63z"/>
<path style="fill:#016565; stroke:none;" d="M7 64L7 69L8 69L7 64M151 64L151 68L152 68L151 64z"/>
<path style="fill:#019898; stroke:none;" d="M9 65L10 66L9 65M149 65L150 66L149 65z"/>
<path style="fill:#016565; stroke:none;" d="M9 66L10 67L9 66M149 66L150 67L149 66z"/>
<path style="fill:#019898; stroke:none;" d="M151.333 68.6667L151.667 69.3333L151.333 68.6667M7 69L7 71L9 69L7 69z"/>
<path style="fill:#016565; stroke:none;" d="M150 69L151 70L150 69M8 70L9 71L8 70M7 71L8 72L7 71M14 84L14 85L17 85L14 84M145 84L145 85L148 85L148 97L149 97C149 92.1553 150.465 85.8138 145 84z"/>
<path style="fill:#01d2d2; stroke:none;" d="M13 85C13 121.644 31.8295 151.318 71 153C76.3652 120.486 45.7223 85.679 13 85z"/>
<path style="fill:#016565; stroke:none;" d="M19.6667 85.3333L20.3333 85.6667L19.6667 85.3333M141 85L142 86L141 85z"/>
<path style="fill:#01a9a9; stroke:none;" d="M142 85L143 86L142 85z"/>
<path style="fill:#01d2d2; stroke:none;" d="M148 85C124.789 86.012 103.269 104.722 94.2346 125C91.8867 130.27 86.7357 146.565 91.6034 151.396C96.5003 156.256 110.944 149.514 116 147.269C141.779 135.819 148 110.701 148 85z"/>
<path style="fill:#016565; stroke:none;" d="M23 86L24 87L23 86M138 86L139 87L138 86z"/>
<path style="fill:#01a9a9; stroke:none;" d="M146 86L147 87L146 86z"/>
<path style="fill:#016565; stroke:none;" d="M25 87L26 88L25 87M135 87L136 88L135 87z"/>
<path style="fill:#01a9a9; stroke:none;" d="M27 88L28 89L27 88M133 88L134 89L133 88z"/>
<path style="fill:#019898; stroke:none;" d="M29 89L30 90L29 89z"/>
<path style="fill:#016565; stroke:none;" d="M30 89L31 90L30 89z"/>
<path style="fill:#01a9a9; stroke:none;" d="M131 89L132 90L131 89M32 90L33 91L32 90M129 90L130 91L129 90z"/>
<path style="fill:#016565; stroke:none;" d="M35 91L36 92L35 91z"/>
<path style="fill:#01a9a9; stroke:none;" d="M127 91L128 92L127 91z"/>
<path style="fill:#016565; stroke:none;" d="M37 92L38 93L37 92z"/>
<path style="fill:#01a9a9; stroke:none;" d="M125 92L126 93L125 92M38 93L39 94L38 93z"/>
<path style="fill:#016565; stroke:none;" d="M40 94L41 95L40 94M121 94L122 95L121 94z"/>
<path style="fill:#01a9a9; stroke:none;" d="M41 95L42 96L41 95z"/>
<path style="fill:#016565; stroke:none;" d="M119 95L120 96L119 95z"/>
<path style="fill:#01a9a9; stroke:none;" d="M13 96L14 97L13 96M43 96L44 97L43 96z"/>
<path style="fill:#016565; stroke:none;" d="M117 96L118 97L117 96M13 97L13 101L14 101L13 97M45 97L46 98L45 97z"/>
<path style="fill:#01a9a9; stroke:none;" d="M116 97L117 98L116 97z"/>
<path style="fill:#016565; stroke:none;" d="M48 99L49 100L48 99M113 99L114 100L113 99z"/>
<path style="fill:#01a9a9; stroke:none;" d="M49 100L50 101L49 100M112 100L113 101L112 100M50 101L51 102L50 101M111 101L112 102L111 101M14 104L15 105L14 104z"/>
<path style="fill:#016565; stroke:none;" d="M147.333 104.667L147.667 105.333L147.333 104.667M14.3333 105.667L14.6667 106.333L14.3333 105.667z"/>
<path style="fill:#01a9a9; stroke:none;" d="M54 105L55 106L54 105z"/>
<path style="fill:#016565; stroke:none;" d="M106 105L107 106L106 105z"/>
<path style="fill:#01a9a9; stroke:none;" d="M55 106L56 107L55 106M105 106L106 107L105 106M56 107L57 108L56 107M104 107L105 108L104 107M57 108L58 109L57 108z"/>
<path style="fill:#016565; stroke:none;" d="M103 108L104 109L103 108M146.333 108.667L146.667 109.333L146.333 108.667z"/>
<path style="fill:#01a9a9; stroke:none;" d="M58 109L59 110L58 109z"/>
<path style="fill:#016565; stroke:none;" d="M15.3333 110.667L15.6667 111.333L15.3333 110.667z"/>
<path style="fill:#01a9a9; stroke:none;" d="M102 110L103 111L102 110z"/>
<path style="fill:#016565; stroke:none;" d="M101 111L102 112L101 111z"/>
<path style="fill:#019898; stroke:none;" d="M145 112L146 113L145 112z"/>
<path style="fill:#01a9a9; stroke:none;" d="M16 113L17 114L16 113M61 113L62 114L61 113M100 113L101 114L100 113z"/>
<path style="fill:#016565; stroke:none;" d="M145 113L146 114L145 113M62 114L63 115L62 114M99 114L100 115L99 114z"/>
<path style="fill:#019898; stroke:none;" d="M17 116L18 117L17 116z"/>
<path style="fill:#01a9a9; stroke:none;" d="M63 116L64 117L63 116M98 116L99 117L98 116M144 116L145 117L144 116z"/>
<path style="fill:#016565; stroke:none;" d="M17 117L18 118L17 117M97 117L98 118L97 117z"/>
<path style="fill:#01a9a9; stroke:none;" d="M64 118L65 119L64 118M143 118L144 119L143 118M18 119L19 120L18 119z"/>
<path style="fill:#016565; stroke:none;" d="M96 119L97 120L96 119z"/>
<path style="fill:#01a9a9; stroke:none;" d="M65 120L66 121L65 120M142 120L143 121L142 120M19 121L20 122L19 121z"/>
<path style="fill:#016565; stroke:none;" d="M95 121L96 122L95 121z"/>
<path style="fill:#01a9a9; stroke:none;" d="M66 122L67 123L66 122M95 122L96 123L95 122M141 122L142 123L141 122M20 123L21 124L20 123M67 124L68 125L67 124M94 124L95 125L94 124M140 124L141 125L140 124M21 125L22 126L21 125z"/>
<path style="fill:#016565; stroke:none;" d="M68 126L69 127L68 126z"/>
<path style="fill:#01a9a9; stroke:none;" d="M93 126L94 127L93 126M139 126L140 127L139 126M22 127L23 128L22 127M68 127L69 128L68 127z"/>
<path style="fill:#016565; stroke:none;" d="M92 128L93 129L92 128M69.3333 129.667L69.6667 130.333L69.3333 129.667z"/>
<path style="fill:#01a9a9; stroke:none;" d="M137 129L138 130L137 129M24 130L25 131L24 130M25 131L26 132L25 131z"/>
<path style="fill:#016565; stroke:none;" d="M91.3333 131.667L91.6667 132.333L91.3333 131.667M136 131L137 132L136 131z"/>
<path style="fill:#01a9a9; stroke:none;" d="M135 132L136 133L135 132z"/>
<path style="fill:#016565; stroke:none;" d="M70.3333 133.667L70.6667 134.333L70.3333 133.667z"/>
<path style="fill:#01a9a9; stroke:none;" d="M91 133L92 134L91 133z"/>
<path style="fill:#019898; stroke:none;" d="M134 133L135 134L134 133z"/>
<path style="fill:#01a9a9; stroke:none;" d="M27 134L28 135L27 134z"/>
<path style="fill:#016565; stroke:none;" d="M13 135L15 137L13 135z"/>
<path style="fill:#01a9a9; stroke:none;" d="M28 135L29 136L28 135z"/>
<path style="fill:#019898; stroke:none;" d="M13.3333 136.667L13.6667 137.333L13.3333 136.667z"/>
<path style="fill:#01a9a9; stroke:none;" d="M29 136L30 137L29 136z"/>
<path style="fill:#016565; stroke:none;" d="M90 136L90 141L91 141L90 136z"/>
<path style="fill:#01d2d2; stroke:none;" d="M14 137C18.1896 161.348 37.5426 181.455 56 196.192C62.0477 201.021 72.7483 209.529 81 208.744C88.3191 208.047 97.1013 201.882 103 197.795C122.119 184.547 135.241 167.349 144 146L143 146C131.452 165.583 119.6 180.775 100 193.05C94.6773 196.384 85.638 203.032 79 202.15C71.9136 201.208 63.6504 194.476 58 190.421C37.4474 175.668 27.6162 157.242 14 137z"/>
<path style="fill:#01a9a9; stroke:none;" d="M30 137L31 138L30 137z"/>
<path style="fill:#016565; stroke:none;" d="M13 138L14 139L13 138z"/>
<path style="fill:#01a9a9; stroke:none;" d="M31 138L32 139L31 138z"/>
<path style="fill:#016565; stroke:none;" d="M15 139L16 140L15 139M32 139L33 140L32 139z"/>
<path style="fill:#01a9a9; stroke:none;" d="M128 139L129 140L128 139z"/>
<path style="fill:#016565; stroke:none;" d="M14 140L15 141L14 140z"/>
<path style="fill:#01a9a9; stroke:none;" d="M127 140L128 141L127 140z"/>
<path style="fill:#016565; stroke:none;" d="M16 141L17 142L16 141z"/>
<path style="fill:#01a9a9; stroke:none;" d="M35 141L36 142L35 141M90 141L91 142L90 141M126 141L127 142L126 141M15 142L16 143L15 142M36 142L37 143L36 142z"/>
<path style="fill:#016565; stroke:none;" d="M71 142L71 146L72 146L71 142M15 143L16 144L15 143M17 143L18 144L17 143M123 143L124 144L123 143M39 144L40 145L39 144z"/>
<path style="fill:#01a9a9; stroke:none;" d="M121 144L122 145L121 144z"/>
<path style="fill:#016565; stroke:none;" d="M16 145L17 146L16 145M18 145L19 146L18 145M41 145L42 146L41 145M120 145L121 146L120 145M43 146L44 147L43 146z"/>
<path style="fill:#01a9a9; stroke:none;" d="M71 146L72 147L71 146M117 146L118 147L117 146z"/>
<path style="fill:#016565; stroke:none;" d="M142 146L143 147L142 146M19 147L20 148L19 147M45 147L46 148L45 147z"/>
<path style="fill:#01a9a9; stroke:none;" d="M115 147L116 148L115 147z"/>
<path style="fill:#019898; stroke:none;" d="M143 147L144 148L143 147z"/>
<path style="fill:#01a9a9; stroke:none;" d="M17 148L18 149L17 148z"/>
<path style="fill:#016565; stroke:none;" d="M48 148L49 149L48 148M89 148L90 149L89 148M113 148L114 149L113 148z"/>
<path style="fill:#01a9a9; stroke:none;" d="M20 149L21 150L20 149z"/>
<path style="fill:#016565; stroke:none;" d="M50 149L51 150L50 149M110 149L111 150L110 149M142 149L143 150L142 149z"/>
<path style="fill:#01a9a9; stroke:none;" d="M18 150L19 151L18 150z"/>
<path style="fill:#016565; stroke:none;" d="M53.6667 150.333L54.3333 150.667L53.6667 150.333M71 150L71 153L72 153L71 150z"/>
<path style="fill:#01a9a9; stroke:none;" d="M107 150L108 151L107 150z"/>
<path style="fill:#016565; stroke:none;" d="M108 150L109 151L108 150M140 150L141 151L140 150M57.6667 151.333L58.3333 151.667L57.6667 151.333z"/>
<path style="fill:#01a9a9; stroke:none;" d="M90 151L91 152L90 151z"/>
<path style="fill:#016565; stroke:none;" d="M104 151L105 152L104 151z"/>
<path style="fill:#01a9a9; stroke:none;" d="M141 151L142 152L141 151M19 152L20 153L19 152z"/>
<path style="fill:#016565; stroke:none;" d="M22 152L23 153L22 152M61 152L61 153L65 153L61 152z"/>
<path style="fill:#01a9a9; stroke:none;" d="M65 152L66 153L65 152z"/>
<path style="fill:#016565; stroke:none;" d="M91 152L92 153L91 152M98 152L98 153L101 153L98 152z"/>
<path style="fill:#01a9a9; stroke:none;" d="M139 152L140 153L139 152z"/>
<path style="fill:#016565; stroke:none;" d="M141 152L142 153L141 152M138 153L139 154L138 153z"/>
<path style="fill:#01a9a9; stroke:none;" d="M20 154L21 155L20 154z"/>
<path style="fill:#016565; stroke:none;" d="M140 154L141 155L140 154z"/>
<path style="fill:#01a9a9; stroke:none;" d="M24 155L25 156L24 155z"/>
<path style="fill:#016565; stroke:none;" d="M137 155L138 156L137 155z"/>
<path style="fill:#01a9a9; stroke:none;" d="M21 156L22 157L21 156z"/>
<path style="fill:#016565; stroke:none;" d="M25 156L26 157L25 156M139 156L140 157L139 156M136 157L137 158L136 157z"/>
<path style="fill:#01a9a9; stroke:none;" d="M22 158L23 159L22 158z"/>
<path style="fill:#016565; stroke:none;" d="M26 158L27 159L26 158z"/>
<path style="fill:#01a9a9; stroke:none;" d="M135 159L136 160L135 159z"/>
<path style="fill:#016565; stroke:none;" d="M138 159L139 160L138 159M23 160L24 161L23 160z"/>
<path style="fill:#019898; stroke:none;" d="M28 161L29 162L28 161z"/>
<path style="fill:#01a9a9; stroke:none;" d="M29 162L30 163L29 162M133 162L134 163L133 162M136 162L137 163L136 162M25 163L26 164L25 163z"/>
<path style="fill:#016565; stroke:none;" d="M26 165L27 166L26 165z"/>
<path style="fill:#01a9a9; stroke:none;" d="M31 165L32 166L31 165z"/>
<path style="fill:#016565; stroke:none;" d="M131 165L132 166L131 165z"/>
<path style="fill:#01a9a9; stroke:none;" d="M134 165L135 166L134 165M28 168L29 169L28 168M33 168L34 169L33 168M129 168L130 169L129 168M132 168L133 169L132 168M29 169L30 170L29 169M34 169L35 170L34 169M128 169L129 170L128 169M131 169L132 170L131 169M35 170L36 171L35 170M127 170L128 171L127 170z"/>
<path style="fill:#016565; stroke:none;" d="M30 171L31 172L30 171z"/>
<path style="fill:#01a9a9; stroke:none;" d="M36 171L37 172L36 171M126 171L127 172L126 171M31 172L32 173L31 172M129 172L130 173L129 172M128 173L129 174L128 173z"/>
<path style="fill:#016565; stroke:none;" d="M33 175L34 176L33 175z"/>
<path style="fill:#01a9a9; stroke:none;" d="M122 175L123 176L122 175M34 176L35 177L34 176M121 176L122 177L121 176z"/>
<path style="fill:#016565; stroke:none;" d="M126 176L127 177L126 176z"/>
<path style="fill:#01a9a9; stroke:none;" d="M35 177L36 178L35 177M120 177L121 178L120 177M125 177L126 178L125 177M36 178L37 179L36 178z"/>
<path style="fill:#016565; stroke:none;" d="M43 178L44 179L43 178z"/>
<path style="fill:#01a9a9; stroke:none;" d="M119 178L120 179L119 178z"/>
<path style="fill:#019898; stroke:none;" d="M124 178L125 179L124 178z"/>
<path style="fill:#01a9a9; stroke:none;" d="M37 179L38 180L37 179M44 179L45 180L44 179M118 179L119 180L118 179M45 180L46 181L45 180M117 180L118 181L117 180M39 181L40 182L39 181M46 181L47 182L46 181M116 181L117 182L116 181M40 182L41 183L40 182M47 182L48 183L47 182M41 183L42 184L41 183z"/>
<path style="fill:#016565; stroke:none;" d="M113 183L114 184L113 183z"/>
<path style="fill:#01a9a9; stroke:none;" d="M42 184L43 185L42 184z"/>
<path style="fill:#019898; stroke:none;" d="M112 184L113 185L112 184z"/>
<path style="fill:#01a9a9; stroke:none;" d="M43 185L44 186L43 185M44 186L45 187L44 186M52 186L53 187L52 186z"/>
<path style="fill:#016565; stroke:none;" d="M109 186L110 187L109 186z"/>
<path style="fill:#01a9a9; stroke:none;" d="M53 187L54 188L53 187M108 187L109 188L108 187M107 188L108 189L107 188M48 189L49 190L48 189z"/>
<path style="fill:#019898; stroke:none;" d="M56 189L57 190L56 189z"/>
<path style="fill:#01a9a9; stroke:none;" d="M113 189L114 190L113 189M49 190L50 191L49 190M104 190L105 191L104 190M112 190L113 191L112 190M50 191L51 192L50 191z"/>
<path style="fill:#016565; stroke:none;" d="M59 191L60 192L59 191M102 191L103 192L102 191M111 191L112 192L111 191z"/>
<path style="fill:#019898; stroke:none;" d="M60 192L61 193L60 192M99 193L100 194L99 193z"/>
<path style="fill:#01a9a9; stroke:none;" d="M108 193L109 194L108 193z"/>
<path style="fill:#016565; stroke:none;" d="M63 194L64 195L63 194M97 194L98 195L97 194z"/>
<path style="fill:#01a9a9; stroke:none;" d="M107 194L108 195L107 194M55 195L56 196L55 195z"/>
<path style="fill:#016565; stroke:none;" d="M65 195L66 196L65 195z"/>
<path style="fill:#01a9a9; stroke:none;" d="M96 195L97 196L96 195M56 196L57 197L56 196z"/>
<path style="fill:#016565; stroke:none;" d="M67 196L68 197L67 196z"/>
<path style="fill:#01a9a9; stroke:none;" d="M94 196L95 197L94 196M104 196L105 197L104 196M92 197L93 198L92 197M103 197L104 198L103 197M70 198L71 199L70 198M90 198L91 199L90 198M60 199L61 200L60 199M72 199L73 200L72 199M88 199L89 200L88 199z"/>
<path style="fill:#016565; stroke:none;" d="M100 199L101 200L100 199M61 200L62 201L61 200z"/>
<path style="fill:#01a9a9; stroke:none;" d="M74 200L75 201L74 200z"/>
<path style="fill:#016565; stroke:none;" d="M85 200L86 201L85 200z"/>
<path style="fill:#01a9a9; stroke:none;" d="M98 200L99 201L98 200z"/>
<path style="fill:#016565; stroke:none;" d="M63 201L64 202L63 201z"/>
<path style="fill:#01a9a9; stroke:none;" d="M76 201L77 202L76 201z"/>
<path style="fill:#016565; stroke:none;" d="M83 201L84 202L83 201M97 201L98 202L97 201z"/>
<path style="fill:#01a9a9; stroke:none;" d="M65 202L66 203L65 202M78 202L79 203L78 202z"/>
<path style="fill:#016565; stroke:none;" d="M81 202L82 203L81 202z"/>
<path style="fill:#019898; stroke:none;" d="M95 202L96 203L95 202z"/>
<path style="fill:#016565; stroke:none;" d="M66 203L67 204L66 203z"/>
<path style="fill:#01a9a9; stroke:none;" d="M93 203L94 204L93 203M68 204L69 205L68 204M91 204L92 205L91 204M70 205L71 206L70 205M89 205L90 206L89 205M72 206L73 207L72 206M87 206L88 207L87 206M74 207L75 208L74 207M85 207L86 208L85 207M76 208L77 209L76 208M83 208L84 209L83 208z"/>
<path style="fill:#016565; stroke:none;" d="M78 209L78 210L82 210L78 209z"/>
</svg>
